<svg id="svg" xmlns="http://www.w3.org/2000/svg" xmlns:xlink="http://www.w3.org/1999/xlink" width="400" height="48.24120603015076" viewBox="0, 0, 400,48.24120603015076" version="1.1"><g id="svgg"><path id="path0" d="M10.050 21.106 C 10.050 28.476,10.926 34.171,12.060 34.171 C 13.194 34.171,14.070 28.476,14.070 21.106 C 14.070 13.735,13.194 8.040,12.060 8.040 C 10.926 8.040,10.050 13.735,10.050 21.106 M28.141 21.106 C 28.141 28.476,29.017 34.171,30.151 34.171 C 31.256 34.171,32.161 32.814,32.161 31.156 C 32.161 27.254,33.978 27.343,38.535 31.467 C 41.851 34.468,42.211 34.480,42.211 31.586 C 42.211 29.822,41.263 27.792,40.103 27.075 C 38.667 26.188,38.758 24.854,40.390 22.888 C 44.090 18.429,40.727 16.991,36.193 21.094 C 32.218 24.692,32.161 24.625,32.161 16.392 C 32.161 11.798,31.256 8.040,30.151 8.040 C 29.017 8.040,28.141 13.735,28.141 21.106 M82.814 10.452 C 81.487 11.779,80.402 14.040,80.402 15.477 C 80.402 16.915,79.497 18.090,78.392 18.090 C 77.286 18.090,76.382 19.447,76.382 21.106 C 76.382 22.764,77.286 24.121,78.392 24.121 C 79.497 24.121,80.402 26.834,80.402 30.151 C 80.402 33.467,81.307 36.181,82.412 36.181 C 83.518 36.181,84.422 33.467,84.422 30.151 C 84.422 26.131,85.427 24.121,87.437 24.121 C 91.704 24.121,91.208 18.104,86.935 18.027 C 83.585 17.966,83.585 17.835,86.935 15.292 C 88.869 13.824,90.452 11.591,90.452 10.331 C 90.452 7.323,85.870 7.396,82.814 10.452 M112.563 20.987 L 112.563 34.171 118.522 34.171 C 125.885 34.171,129.896 28.207,126.633 22.111 C 125.450 19.899,122.704 18.090,120.532 18.090 C 117.963 18.090,116.583 16.727,116.583 14.189 C 116.583 12.043,115.678 9.728,114.573 9.045 C 113.311 8.265,112.563 12.709,112.563 20.987 M154.774 21.106 C 154.774 33.918,157.210 38.436,159.466 29.807 L 160.608 25.443 164.553 30.309 C 166.723 32.986,169.174 34.503,169.999 33.681 C 170.824 32.858,169.939 30.461,168.031 28.353 C 165.761 25.845,165.302 24.062,166.703 23.197 C 167.881 22.469,168.844 20.918,168.844 19.751 C 168.844 18.566,166.651 19.065,163.880 20.881 C 159.644 23.656,159.086 23.690,160.076 21.108 C 161.595 17.150,159.273 8.040,156.746 8.040 C 155.659 8.040,154.774 13.905,154.774 21.106 M211.055 12.060 C 200.350 22.766,211.824 40.388,225.966 34.961 C 231.663 32.775,229.728 28.127,223.618 29.321 C 215.062 30.992,209.557 25.993,212.599 19.316 C 214.953 14.151,219.460 12.794,225.966 15.290 C 231.517 17.420,229.480 21.441,222.850 21.441 C 217.110 21.441,216.878 21.204,220.219 18.760 C 223.250 16.544,223.339 16.080,220.731 16.080 C 216.795 16.080,212.302 21.260,213.940 23.910 C 216.648 28.291,232.115 25.447,232.825 20.437 C 234.346 9.696,219.234 3.881,211.055 12.060 M307.538 21.106 C 307.538 28.476,308.414 34.171,309.548 34.171 C 310.682 34.171,311.558 28.476,311.558 21.106 C 311.558 13.735,310.682 8.040,309.548 8.040 C 308.414 8.040,307.538 13.735,307.538 21.106 M20.101 13.065 C 20.101 14.724,21.005 16.080,22.111 16.080 C 23.216 16.080,24.121 14.724,24.121 13.065 C 24.121 11.407,23.216 10.050,22.111 10.050 C 21.005 10.050,20.101 11.407,20.101 13.065 M298.882 11.336 C 297.276 12.942,299.092 16.080,301.626 16.080 C 302.666 16.080,303.518 14.724,303.518 13.065 C 303.518 9.957,301.146 9.072,298.882 11.336 M20.101 26.131 C 20.101 30.553,21.005 34.171,22.111 34.171 C 23.216 34.171,24.121 30.553,24.121 26.131 C 24.121 21.709,23.216 18.090,22.111 18.090 C 21.005 18.090,20.101 21.709,20.101 26.131 M46.633 20.503 C 41.534 25.601,45.356 34.171,52.728 34.171 C 57.265 34.171,60.506 26.423,57.983 21.608 C 55.857 17.550,50.142 16.993,46.633 20.503 M62.312 26.131 C 62.312 30.553,63.216 34.171,64.322 34.171 C 65.427 34.171,66.332 32.415,66.332 30.269 C 66.332 28.124,67.236 25.809,68.342 25.126 C 69.447 24.442,70.352 24.841,70.352 26.012 C 70.352 27.183,71.256 28.141,72.362 28.141 C 73.467 28.141,74.372 25.879,74.372 23.116 C 74.372 18.872,73.434 18.090,68.342 18.090 C 62.647 18.090,62.312 18.537,62.312 26.131 M95.728 21.142 C 89.471 27.399,93.270 34.171,103.036 34.171 C 108.451 34.171,108.749 33.732,108.162 26.633 C 107.450 18.034,101.475 15.395,95.728 21.142 M130.653 26.437 C 130.653 30.690,131.558 34.171,132.663 34.171 C 133.769 34.171,134.673 32.415,134.673 30.269 C 134.673 25.300,138.622 22.763,140.820 26.319 C 142.167 28.499,142.752 28.370,143.789 25.668 C 145.705 20.673,143.372 18.341,136.648 18.532 C 131.063 18.691,130.653 19.231,130.653 26.437 M146.734 26.131 C 146.734 30.553,147.638 34.171,148.744 34.171 C 149.849 34.171,150.754 30.553,150.754 26.131 C 150.754 21.709,149.849 18.090,148.744 18.090 C 147.638 18.090,146.734 21.709,146.734 26.131 M175.733 19.629 C 168.774 24.393,172.618 35.061,180.860 33.859 C 186.462 33.042,188.899 28.141,183.703 28.141 C 180.356 28.141,180.365 27.973,183.843 25.431 C 190.158 20.812,182.258 15.160,175.733 19.629 M190.955 26.382 C 190.955 34.627,194.249 37.201,195.338 29.806 C 196.284 23.371,201.005 22.681,201.005 28.978 C 201.005 31.834,201.910 34.171,203.015 34.171 C 205.332 34.171,205.684 24.225,203.487 20.841 C 199.441 14.610,190.955 18.362,190.955 26.382 M239.675 20.425 C 235.560 24.541,236.682 32.088,241.709 34.108 L 246.231 35.926 241.709 36.053 C 235.356 36.232,235.775 42.211,242.140 42.211 C 248.396 42.211,251.681 36.317,250.870 26.548 C 250.204 18.527,244.625 15.475,239.675 20.425 M255.276 26.457 C 255.276 30.699,256.181 34.171,257.286 34.171 C 258.392 34.171,259.296 32.415,259.296 30.269 C 259.296 28.124,260.201 25.809,261.307 25.126 C 262.447 24.421,263.317 26.110,263.317 29.027 C 263.317 31.856,264.221 34.171,265.327 34.171 C 266.432 34.171,267.337 31.910,267.337 29.146 C 267.337 26.382,268.224 24.121,269.308 24.121 C 270.393 24.121,271.848 26.382,272.541 29.146 C 273.892 34.527,277.387 36.071,277.387 31.287 C 277.387 21.765,273.631 18.048,264.365 18.398 L 255.276 18.742 255.276 26.457 M281.579 20.898 C 276.897 26.539,279.684 33.097,287.064 33.805 C 293.648 34.437,293.719 34.354,293.094 26.770 C 292.396 18.295,286.314 15.193,281.579 20.898 M297.487 25.963 C 297.487 30.477,298.392 34.171,299.497 34.171 C 300.603 34.171,301.508 31.457,301.508 28.141 C 301.508 24.824,301.575 21.455,301.658 20.653 C 301.741 19.852,300.837 18.872,299.648 18.476 C 298.342 18.040,297.487 21.003,297.487 25.963 M330.614 22.154 C 327.687 25.389,327.300 27.155,328.947 29.766 C 331.440 33.718,339.978 34.336,341.206 30.653 C 341.735 29.066,340.088 28.141,336.732 28.141 C 333.703 28.141,331.955 27.277,332.663 26.131 C 333.347 25.025,335.737 24.121,337.975 24.121 C 340.336 24.121,341.692 23.066,341.207 21.608 C 339.814 17.424,334.654 17.690,330.614 22.154 M346.978 21.149 C 343.031 25.096,342.954 26.327,346.364 30.990 C 351.602 38.153,363.299 30.125,358.568 22.613 C 355.549 17.819,350.895 17.231,346.978 21.149 M362.827 19.753 C 360.935 21.644,361.793 31.914,363.954 33.249 C 365.136 33.980,366.596 32.678,367.204 30.353 C 368.607 24.987,371.859 24.845,371.859 30.151 C 371.859 32.362,372.764 34.171,373.869 34.171 C 374.975 34.171,375.879 31.910,375.879 29.146 C 375.879 26.382,376.784 24.121,377.889 24.121 C 378.995 24.121,379.899 25.876,379.899 28.022 C 379.899 31.623,383.242 35.519,384.904 33.856 C 385.299 33.461,384.976 29.979,384.186 26.117 C 382.829 19.478,367.630 14.950,362.827 19.753 M54.271 26.131 C 54.271 27.236,52.915 28.141,51.256 28.141 C 49.598 28.141,48.241 27.236,48.241 26.131 C 48.241 25.025,49.598 24.121,51.256 24.121 C 52.915 24.121,54.271 25.025,54.271 26.131 M122.613 26.131 C 122.613 27.236,121.256 28.141,119.598 28.141 C 117.940 28.141,116.583 27.236,116.583 26.131 C 116.583 25.025,117.940 24.121,119.598 24.121 C 121.256 24.121,122.613 25.025,122.613 26.131 M289.447 26.131 C 289.447 27.236,288.090 28.141,286.432 28.141 C 284.774 28.141,283.417 27.236,283.417 26.131 C 283.417 25.025,284.774 24.121,286.432 24.121 C 288.090 24.121,289.447 25.025,289.447 26.131 M355.779 26.131 C 355.779 27.236,354.422 28.141,352.764 28.141 C 351.106 28.141,349.749 27.236,349.749 26.131 C 349.749 25.025,351.106 24.121,352.764 24.121 C 354.422 24.121,355.779 25.025,355.779 26.131 " stroke="none" fill="#000000" fill-rule="evenodd"></path></g></svg>