<svg id="svg" xmlns="http://www.w3.org/2000/svg" xmlns:xlink="http://www.w3.org/1999/xlink" width="400" height="781.25" viewBox="0, 0, 400,781.25"><g id="svgg"><path id="path0" d="M377.083 2.831 C 373.635 3.444,362.345 8.443,360.603 10.128 C 358.709 11.958,357.274 11.798,354.755 9.475 C 341.812 -2.463,310.052 8.421,299.930 28.263 L 297.822 32.394 300.928 37.823 L 304.034 43.252 301.556 48.141 C 300.192 50.830,297.410 55.507,295.372 58.533 C 290.752 65.393,290.692 64.810,296.859 72.917 C 299.692 76.641,303.316 81.465,304.911 83.637 C 306.507 85.810,308.549 88.388,309.450 89.366 C 310.798 90.832,315.961 97.453,322.530 106.142 C 325.115 109.560,332.217 102.514,335.019 93.750 C 337.816 85.005,336.846 67.784,333.377 64.583 C 331.592 62.937,328.125 57.143,328.125 55.807 C 328.125 52.391,331.631 46.875,333.803 46.875 C 337.911 46.875,347.123 40.762,357.350 31.250 C 360.440 28.376,362.983 27.378,365.104 28.206 C 373.012 31.295,391.667 20.880,391.667 13.376 C 391.667 11.226,382.859 2.023,380.996 2.225 C 380.276 2.303,378.516 2.576,377.083 2.831 M265.370 68.269 C 265.224 68.392,259.245 68.798,252.083 69.171 C 226.231 70.517,226.241 70.514,222.988 77.014 C 220.130 82.726,219.617 85.912,219.225 100.382 C 218.808 115.766,218.308 118.820,215.320 124.219 C 212.685 128.980,212.354 129.015,210.494 124.740 C 209.684 122.878,208.728 121.120,208.369 120.833 C 208.011 120.547,204.233 113.281,199.974 104.688 C 195.714 96.094,191.959 88.828,191.630 88.542 C 191.300 88.255,189.990 85.775,188.719 83.031 C 185.730 76.576,184.530 76.244,177.901 80.045 C 170.684 84.183,164.590 90.671,158.669 100.521 C 154.459 107.524,149.647 121.336,146.488 135.483 C 145.899 138.116,139.229 143.235,132.653 146.099 C 126.250 148.889,111.222 158.703,105.885 163.581 C 99.685 169.247,98.600 171.383,95.326 184.375 C 94.816 186.397,93.642 191.501,93.289 193.229 C 93.055 194.375,91.405 201.406,89.623 208.854 C 87.841 216.302,86.212 223.114,86.003 223.992 C 82.387 239.194,78.642 253.152,77.630 255.208 C 76.924 256.641,74.993 262.031,73.339 267.188 C 67.313 285.967,54.475 308.302,41.304 322.917 C 10.685 356.892,4.943 371.178,14.925 388.542 C 15.749 389.974,16.883 392.318,17.447 393.750 C 18.010 395.182,18.951 397.526,19.538 398.958 C 21.853 404.614,22.864 410.314,23.014 418.565 C 23.187 428.073,23.176 428.053,34.375 439.978 C 36.953 442.724,39.491 445.750,40.015 446.704 C 40.539 447.657,41.349 448.693,41.816 449.006 C 47.392 452.744,54.093 465.225,54.028 471.751 C 53.990 475.543,54.466 481.927,55.084 485.938 C 57.793 503.500,56.407 510.685,48.642 519.354 C 37.672 531.601,34.293 538.091,35.789 544.048 C 36.810 548.120,43.424 555.942,46.497 556.714 C 56.369 559.191,64.462 574.680,67.275 596.477 C 69.635 614.771,71.414 618.054,81.834 623.345 C 93.837 629.438,94.855 630.999,95.233 643.872 C 95.664 658.512,96.729 665.408,99.280 670.052 C 103.427 677.603,109.278 673.796,117.289 658.333 C 120.527 652.084,124.607 647.191,125.688 648.263 C 126.624 649.191,126.981 667.104,126.278 677.910 L 125.852 684.466 119.614 688.327 C 110.015 694.267,108.428 695.914,106.861 701.563 C 102.858 715.986,93.817 749.800,93.353 752.083 C 93.063 753.516,91.415 759.843,89.691 766.143 C 87.968 772.444,86.887 777.903,87.289 778.275 C 88.236 779.149,100.559 777.415,103.112 776.049 C 104.190 775.472,106.246 775.000,107.683 775.000 C 109.119 775.000,110.583 774.531,110.937 773.958 C 111.292 773.385,112.511 772.917,113.648 772.917 C 114.784 772.917,118.155 771.157,121.138 769.007 C 124.122 766.856,129.844 762.865,133.854 760.137 C 148.986 749.844,151.733 745.979,156.236 728.646 C 159.566 715.829,161.628 711.703,166.820 707.477 C 172.192 703.103,170.198 700.590,159.654 698.444 C 156.781 697.860,156.118 697.123,155.125 693.411 C 154.486 691.019,153.584 688.594,153.121 688.021 C 151.307 685.776,149.764 673.568,150.184 664.782 C 150.841 651.044,158.098 638.555,168.496 633.267 C 174.315 630.307,178.004 626.882,178.678 623.811 C 179.618 619.532,179.144 619.347,172.318 621.332 C 161.593 624.450,159.040 621.343,164.697 612.058 C 165.770 610.296,166.970 608.151,167.363 607.292 C 168.184 605.497,181.512 592.301,196.296 578.646 L 206.446 569.271 205.985 564.367 C 205.322 557.337,211.115 553.139,235.343 543.095 C 250.978 536.613,258.212 526.386,255.679 514.345 C 253.907 505.920,253.289 505.247,247.317 505.224 C 240.987 505.200,234.578 497.034,236.072 490.894 C 236.822 487.809,242.083 475.493,243.750 472.917 C 244.748 471.375,247.046 467.187,250.407 460.787 C 251.353 458.985,252.820 456.935,253.667 456.232 C 254.515 455.529,255.208 454.546,255.208 454.048 C 255.208 452.766,261.577 444.583,267.430 438.345 C 283.000 421.749,289.317 417.159,297.763 416.304 C 311.281 414.936,314.154 400.709,303.367 388.554 C 298.848 383.461,296.716 383.102,287.500 385.882 C 265.325 392.572,235.067 364.688,243.249 345.104 C 254.397 318.424,252.925 293.036,239.488 280.202 L 233.482 274.466 235.314 266.587 C 236.322 262.253,237.488 258.155,237.905 257.479 C 238.323 256.803,238.145 256.250,237.510 256.250 C 236.740 256.250,236.387 253.033,236.452 246.615 C 236.565 235.478,235.722 222.365,234.461 215.625 C 233.978 213.047,233.502 208.015,233.404 204.442 L 233.225 197.947 238.227 198.514 C 240.978 198.826,246.042 199.805,249.479 200.690 C 269.493 205.841,281.990 199.742,281.344 185.137 C 280.409 163.966,280.489 163.055,283.320 162.656 C 290.316 161.669,294.085 154.415,295.306 139.583 C 296.487 125.240,298.490 123.139,309.196 125.018 C 316.869 126.364,322.994 125.147,321.164 122.639 C 320.648 121.932,319.598 119.511,318.831 117.258 C 317.016 111.929,317.253 112.216,302.049 96.956 C 288.472 83.331,284.082 78.126,280.781 71.737 C 279.032 68.354,268.168 65.909,265.370 68.269 " stroke="none" fill="#000000" fill-rule="evenodd"></path></g></svg>