<?xml version="1.0" encoding="UTF-8" standalone="no"?>
<!-- Created with Inkscape (http://www.inkscape.org/) -->

<svg
   xmlns:dc="http://purl.org/dc/elements/1.1/"
   xmlns:cc="http://creativecommons.org/ns#"
   xmlns:rdf="http://www.w3.org/1999/02/22-rdf-syntax-ns#"
   xmlns:svg="http://www.w3.org/2000/svg"
   xmlns="http://www.w3.org/2000/svg"
   xmlns:sodipodi="http://sodipodi.sourceforge.net/DTD/sodipodi-0.dtd"
   xmlns:inkscape="http://www.inkscape.org/namespaces/inkscape"
   width="650"
   height="80"
   id="svg4016"
   version="1.1"
   inkscape:version="0.48.3.1 r9886"
   sodipodi:docname="Logga Håkans Kardemummalikör.svg">
  <defs
     id="defs4018" />
  <sodipodi:namedview
     id="base"
     pagecolor="#ffffff"
     bordercolor="#666666"
     borderopacity="1.0"
     inkscape:pageopacity="0.0"
     inkscape:pageshadow="2"
     inkscape:zoom="0.64420742"
     inkscape:cx="220.48815"
     inkscape:cy="503.85361"
     inkscape:document-units="px"
     inkscape:current-layer="layer1"
     showgrid="false"
     inkscape:window-width="1280"
     inkscape:window-height="968"
     inkscape:window-x="-4"
     inkscape:window-y="-4"
     inkscape:window-maximized="1" />
  <metadata
     id="metadata4021">
    <rdf:RDF>
      <cc:Work
         rdf:about="">
        <dc:format>image/svg+xml</dc:format>
        <dc:type
           rdf:resource="http://purl.org/dc/dcmitype/StillImage" />
        <dc:title />
      </cc:Work>
    </rdf:RDF>
  </metadata>
  <g
     inkscape:label="Layer 1"
     inkscape:groupmode="layer"
     id="layer1"
     transform="translate(0,-972.36214)">
    <path
       style="fill:#000000;fill-opacity:1;stroke:#000000;stroke-width:1px;stroke-linecap:butt;stroke-linejoin:miter;stroke-opacity:1"
       d="m 16.064427,989.06586 c -1.34683,1.34063 -2.280445,22.07794 -2.280445,22.07794 l -4.1456001,0.777 c -0.95907,0.9522 -0.006,3.0879 2.5653671,2.4865 -1.588837,8.078 -6.864467,24.6347 -5.1832971,26.9774 l 2.12381,-0.1051 c 2.6917071,-9.8774 4.0513661,-18.5379 7.7749441,-27.7018 3.679505,-0.6135 7.152518,-0.1418 10.417084,-0.88 -0.684926,9.6181 -3.660264,25.1195 -3.49795,26.6125 0.110655,1.4384 1.515124,1.9133 2.796706,0.5962 1.22154,-0.9305 2.900134,-24.8245 4.666002,-27.9332 1.888496,-0.665 2.083704,-1.0882 2.591649,-1.556 -0.170039,-2.1081 -1.409994,-1.7067 -2.152154,-2.0985 1.55295,-5.7737 3.390012,-16.42392 2.436047,-18.08799 -0.527089,-1.51876 -0.130236,-1.85986 -0.657325,-2.64033 -1.562437,-1.22468 -2.35496,-0.80135 -3.358956,-0.90914 -1.883346,0.57048 2.412948,5.25469 1.271098,9.19958 -0.393616,2.12937 -2.146725,9.09338 -3.162537,13.26838 -3.520732,1.3289 -7.23782,1.2833 -10.961692,1.1902 l 2.099597,-20.80786 c -0.462192,-1.13987 -1.825507,-1.49577 -3.342348,-0.46578 z"
       id="path3009"
       inkscape:connector-curvature="0"
       sodipodi:nodetypes="ccccccccccccccccccccc" />
    <path
       style="fill:#000000;fill-opacity:1;stroke:#000000;stroke-width:1px;stroke-linecap:butt;stroke-linejoin:miter;stroke-opacity:1"
       d="m 48.381243,987.23445 c -0.169449,-1.43242 8.054045,-3.51375 10.984655,-3.28513 3.67157,-0.0751 5.19341,-0.47957 5.85163,3.69577 0,0 0.2546,4.4892 -2.25853,6.15962 -2.28443,1.51841 -3.66516,1.61622 -5.74897,0.92394 -1.907858,-0.63383 -5.218829,-2.93933 -0.41064,-2.87449 4.85305,0.0654 3.63422,-0.7589 4.51705,-2.56651 2.17462,-4.45256 -2.96499,-3.29515 -4.00375,-3.18246 -2.080555,0.2257 -5.05246,1.3313 -3.59311,4.10641 0.904445,1.71989 -6.481351,0.62487 -5.338335,-2.97715 z"
       id="path3015"
       inkscape:connector-curvature="0"
       sodipodi:nodetypes="cccssssssc" />
    <path
       style="fill:#000000;fill-opacity:1;stroke:#000000;stroke-width:1px;stroke-linecap:butt;stroke-linejoin:miter;stroke-opacity:1"
       d="m 56.183426,1012.1809 c -4.518826,-0.2036 -7.017886,-0.1511 -10.67667,1.4372 -2.721459,1.1815 -8.007504,8.5208 -8.623466,10.4714 -0.615962,1.9505 -0.821282,6.9809 1.026603,9.6501 1.254658,1.8122 6.570259,-0.1027 6.570259,-0.1027 2.501544,-0.4149 5.041469,-3.2969 7.494202,-5.0304 4.896494,-3.9348 8.509594,-5.2796 10.266024,-2.1558 3.15804,3.394 -3.24221,9.8142 -3.18246,12.0112 0.98113,1.0037 0.71987,2.3257 2.97714,2.0532 1.87992,-0.4177 2.39957,-3.5255 3.18247,-6.2622 2.09723,-7.3312 0.18868,-9.0286 -1.12926,-10.5741 -3.02973,-1.5584 -6.14725,-1.8158 -9.239426,-0.2053 -3.08848,2.1497 -13.753684,12.3174 -16.015006,8.2128 -1.131597,-2.0539 2.115036,-9.1166 3.69577,-10.6766 2.100754,-2.0732 6.712446,-6.0412 9.034106,-6.5703 3.526313,-0.8036 8.726126,1.7452 8.726126,1.7452 2.15587,1.5479 2.78317,3.4095 4.41439,1.6426 1.33498,-1.446 -2.36119,-3.4904 -2.36119,-3.4904 -2.03471,-1.268 -3.92263,-1.8762 -6.159612,-2.1559 z"
       id="path2988"
       inkscape:connector-curvature="0"
       sodipodi:nodetypes="cssscccccsccssscscc" />
    <path
       style="fill:#000000;fill-opacity:1;stroke:#000000;stroke-width:1px;stroke-linecap:butt;stroke-linejoin:miter;stroke-opacity:1"
       d="m 88.829398,988.31425 c -10.20952,20.37745 -17.89685,47.10025 -18.58151,49.68755 0.0429,1.447 2.4426,1.9671 3.18246,1.232 1.29188,-0.6375 2.82866,-9.1878 4.4144,-13.7565 0.87147,12.2521 5.1024,13.1561 9.0341,15.5017 1.74798,0.2561 2.43936,-1.1118 0.92395,-2.4639 -9.36004,-7.8508 -9.06961,-20.3344 2.97714,-22.7906 1.46459,-0.6091 1.27801,-0.6666 1e-5,-2.0532 -1.91923,-0.9538 -5.59303,0.9296 -11.18998,5.2357 3.3355,-10.1507 8.20083,-19.80248 13.03786,-29.46348 0.51946,-3.37352 -2.4186,-1.9121 -3.79843,-1.12927 z"
       id="path2990"
       inkscape:connector-curvature="0"
       sodipodi:nodetypes="ccccccccccc" />
    <path
       style="fill:#000000;fill-opacity:1;stroke:#000000;stroke-width:1px;stroke-linecap:butt;stroke-linejoin:miter;stroke-opacity:1"
       d="m 108.84814,1016.3405 c -3.08459,-0.5953 -4.80769,-1.122 -8.82877,0.4106 -1.70025,0.6742 -5.455312,4.0274 -6.159622,7.6996 0,0 -0.29141,7.6428 1.12927,9.8554 0.75141,1.1702 2.654802,5.1354 8.315482,-0.5133 7.02042,-7.0057 14.90471,-11.4011 12.72986,-3.6958 -1.57609,5.584 -1.09006,11.5405 0.92395,11.19 1.0717,-0.1865 0.16048,-0.8473 1.43724,-7.3916 0.77767,-3.9861 1.43725,-8.1101 -0.61596,-9.3421 -3.66464,-2.1988 -9.12655,0.1202 -12.52455,3.9011 -6.27736,6.9848 -7.25384,5.6554 -7.4942,0.924 -0.19332,-3.8055 0,-8.1102 3.38779,-9.6501 3.64608,-1.6573 6.98089,-0.616 11.39529,0.8213 4.41439,1.4372 3.36421,-1.603 2.25853,-2.1559 -2.25854,-1.1292 -5.95431,-2.0532 -5.95431,-2.0532 z"
       id="path2992"
       inkscape:connector-curvature="0"
       sodipodi:nodetypes="cccsssssssssssc" />
    <path
       style="fill:#000000;fill-opacity:1;stroke:#000000;stroke-width:1px;stroke-linecap:butt;stroke-linejoin:miter;stroke-opacity:1"
       d="m 125.68443,1022.964 c -1.24222,-0.3836 0.76313,5.956 -1.0266,14.3724 -0.30736,1.3106 3.19238,1.7841 3.69577,0.1027 0,0 3.28513,-11.2927 6.87824,-11.2927 2.99304,0 8.11016,-2.4638 6.4676,6.365 -0.54487,2.9286 -0.82128,5.2357 0.10266,6.7756 0.92394,1.5399 0.95436,1.0803 1.43725,-0.308 0.82128,-2.3612 1.0266,-6.9809 1.5399,-10.266 0.36451,-2.3329 -0.86013,-4.4956 -3.38779,-4.9277 -2.94091,-0.5029 -7.41002,-0.8336 -9.13677,0.2053 -1.8049,1.0859 -2.68653,4.7903 -3.28513,3.5931 -0.20532,-0.4107 0.92,-4.2042 0.41064,-4.6197 -2.54162,-2.0734 -3.69577,0 -3.69577,0 z"
       id="path2994"
       inkscape:connector-curvature="0"
       sodipodi:nodetypes="cccsssssssssc" />
    <path
       style="fill:#000000;fill-opacity:1;stroke:#000000;stroke-width:1px;stroke-linecap:butt;stroke-linejoin:miter;stroke-opacity:1"
       d="m 160.6916,1021.0666 c 0,0 -3.80815,-0.2524 -5.64632,2.2586 -1.05893,1.4465 -0.47531,3.8976 1.12926,5.0303 1.95055,1.3651 3.13742,1.1266 4.10641,2.9772 0.84386,1.6115 -1.33458,5.2356 -3.49045,6.8782 -2.15586,1.6426 -5.54366,-0.308 -7.28888,0.8213 -1.28131,0.8291 0.72032,2.0624 4.4144,1.9505 3.39099,-0.1026 5.61175,-3.0042 6.46759,-3.9011 1.00295,-1.051 2.60911,-2.6325 2.56651,-5.8516 -0.027,-2.04 -3.08095,-2.8759 -4.41439,-3.7984 -1.33488,-0.9235 -0.5133,-2.8745 1.12926,-3.7985 1.64257,-0.9239 4.17059,0.049 3.79843,-1.3345 -0.44124,-1.6411 -2.77182,-1.232 -2.77182,-1.232 z"
       id="path2996"
       inkscape:connector-curvature="0"
       sodipodi:nodetypes="cscsssssssssc" />
    <path
       style="fill:#000000;fill-opacity:1;stroke:#000000;stroke-width:1px;stroke-linecap:butt;stroke-linejoin:miter;stroke-opacity:1"
       d="m 233.70207,989.27051 c -1.18514,4.3143 -5.67902,21.37619 -7.72369,25.54889 -0.8303,1.6944 -1.77831,4.1236 -1.5689,7.5095 0.1199,1.9386 -4.32686,13.344 -4.97768,15.1446 -1.30096,3.5992 0.42517,5.134 1.63396,3.3702 1.20879,-1.7637 6.70585,-19.3086 6.70585,-19.3086 8.00096,6.9502 12.66618,18.4014 13.78264,18.7528 1.11646,0.3513 1.08867,-0.7875 0.55531,-2.5778 -1.01413,-3.404 -9.98713,-20.2663 -14.01819,-19.0219 0,0 18.05417,-18.3405 22.03772,-21.12797 3.98355,-2.78749 2.20643,-4.87368 0.2201,-3.70706 -3.54443,2.08174 -17.44122,15.92083 -18.38182,16.83153 -2.83085,2.741 5.73598,-20.5159 4.98662,-21.38062 -0.74935,-0.86471 -2.55817,-2.55907 -3.25192,-0.0336 z"
       id="path3945"
       inkscape:connector-curvature="0"
       sodipodi:nodetypes="cssszczsczsszsc" />
    <path
       style="fill:#000000;fill-opacity:1;stroke:#000000;stroke-width:1px;stroke-linecap:butt;stroke-linejoin:miter;stroke-opacity:1"
       d="m 272.09027,1013.4969 c -2.05556,-0.6204 -6.6211,-1.9356 -10.11235,0.9438 -4.89571,4.0378 -9.61003,8.6309 -10.65168,14.6966 -0.60897,3.5461 0.17075,9.4296 3.64045,10.382 4.41161,1.2109 9.97752,-7.5505 10.78651,-8.6292 0.80899,-1.0786 5.52809,-8.0899 8.35954,-4.0449 1.43825,2.0546 1.75281,5.9326 1.48315,9.9775 -0.26966,4.0449 3.35373,6.033 3.10112,5.1236 -0.67416,-2.427 -0.40449,-12.9438 -0.80899,-14.8315 -0.40449,-1.8876 -2.42696,-4.0449 -4.71909,-4.4494 -2.29214,-0.4045 -7.2809,3.7753 -8.89888,5.6629 -1.61797,1.8877 -5.27093,8.0503 -8.35954,8.3596 -1.61728,0.1619 -2.18235,-1.7309 -1.75281,-6.4719 0.16231,-1.7916 0.52353,-3.9896 2.42696,-7.4158 2.02248,-3.6404 3.04838,-4.3289 4.98877,-5.6629 2.1573,-1.4831 4.85393,-2.9663 8.22471,-1.8876 3.37079,1.0786 2.95664,2.9001 4.58427,2.6966 1.07865,-0.1348 0.9086,-1.2887 0.53932,-2.1573 -0.3345,-0.7868 -1.72794,-1.9591 -2.83146,-2.2921 z"
       id="path3947"
       inkscape:connector-curvature="0"
       sodipodi:nodetypes="sssssssssssssssssss" />
    <path
       style="fill:#000000;fill-opacity:1;stroke:#000000;stroke-width:1px;stroke-linecap:butt;stroke-linejoin:miter;stroke-opacity:1"
       d="m 291.37115,1019.4294 c -1.34831,-0.2696 -5.13348,-0.6308 -5.66291,0.6742 -3.60553,8.8873 -2.77575,14.6474 -3.64045,19.2809 -0.30993,1.6608 2.58297,1.8988 3.64045,-0.1348 1.75281,-3.3708 6.74157,-9.8427 9.4382,-12.809 1.86095,-2.0471 7.14606,-4.3146 9.30336,-4.4495 2.1573,-0.1348 1.73248,-2.7129 -0.26966,-2.4269 -2.83146,0.4045 -8.08989,3.2359 -10.24718,4.8539 -1.88687,1.4152 -5.5007,5.3779 -6.33708,6.8764 -3.23595,5.7978 -2.30057,-4.5887 -1.07865,-6.8764 1.79256,-3.356 6.88884,-4.5818 4.85392,-4.9888 z"
       id="path3949"
       inkscape:connector-curvature="0"
       sodipodi:nodetypes="sssssssssss" />
    <path
       style="fill:#000000;fill-opacity:1;stroke:#000000;stroke-width:1px;stroke-linecap:butt;stroke-linejoin:miter;stroke-opacity:1"
       d="m 331.68573,1001.0025 c -2.24814,2.6298 -4.85392,16.7191 -6.74156,15.5056 -1.88764,-1.2135 -3.77528,-2.9663 -7.55056,-2.0225 -3.55831,0.8896 -7.28089,5.6629 -9.43819,8.4944 -2.1573,2.8315 -3.16861,5.6883 -4.04494,7.5506 -1.07865,2.2921 -1.07866,5.9325 -0.26967,7.5505 1.54086,3.0817 6.33708,3.6405 8.49438,2.6966 2.1573,-0.9438 5.52808,-3.6404 6.33707,-4.5842 0.80899,-0.9438 1.75281,-1.0787 2.02247,-2.427 0.26966,-1.3483 -2.83145,-0.091 -4.98876,1.618 -1.57125,1.2445 -5.45009,4.2883 -7.55056,3.3708 -0.71826,-0.3138 -2.00253,-1.4632 -1.48314,-4.5843 0.45628,-2.7419 1.34831,-6.6067 2.69662,-8.0899 2.18428,-2.4027 4.44945,-5.2584 6.20225,-6.8764 1.95154,-1.8014 2.96629,-2.4269 5.12359,-2.2921 2.29951,0.1437 2.69663,0.6741 3.50562,1.4831 0.80898,0.809 0.13483,1.8877 -0.4045,4.7191 -0.53932,2.8315 -1.75281,5.7978 -2.1573,7.1461 -0.40449,1.3483 -1.34831,5.2584 -1.75281,6.7416 -0.40449,1.4831 0.0309,4.3661 0.4045,5.7977 0.59552,2.2822 3.77528,2.5618 4.58427,0.9438 0.80898,-1.6179 -1.21349,-0.1348 -1.48315,-2.9663 -0.26967,-2.8314 4.17977,-18.7415 5.12359,-21.1685 0.94382,-2.4269 5.60651,-14.9413 6.60673,-17.1236 1.48315,-3.23591 -1.43962,-3.58436 -3.23595,-1.4831 z"
       id="path3951"
       inkscape:connector-curvature="0"
       sodipodi:nodetypes="sssssssssssssssssssssssss" />
    <path
       style="fill:#000000;fill-opacity:1;stroke:#000000;stroke-width:1px;stroke-linecap:butt;stroke-linejoin:miter;stroke-opacity:1"
       d="m 342.33742,1030.8227 c -4.05687,-0.8912 -3.66523,-3.3704 -1.07865,-2.9663 4.31459,0.6742 6.10609,-1.8377 7.68537,-3.1011 4.71911,-3.7753 3.84309,-5.846 1.61799,-6.4719 -1.51777,-0.427 -2.9663,-0.4045 -5.79776,1.3483 -2.73464,1.6929 -4.3146,4.4494 -5.39325,7.1461 -1.07865,2.6966 -1.02112,5.8012 -1.21348,8.4943 -0.13483,1.8877 2.63683,5.0892 4.31461,5.7978 3.16667,1.3374 4.44943,0.6741 7.28088,0.6741 2.57596,0 8.22472,-0.5393 4.17978,0.5394 -4.04494,1.0786 -8.08989,2.4269 -11.73033,0.9438 -3.64045,-1.4832 -4.85393,-2.6967 -6.33708,-5.6629 -1.09205,-2.1841 -0.40449,-8.7641 0.53933,-10.5169 0.94382,-1.7528 2.56179,-5.2584 5.12359,-7.955 2.56179,-2.6967 4.7191,-3.7753 8.08989,-3.3708 3.37078,0.4045 5.45079,0.9798 5.66291,3.1011 0.26966,2.6966 -0.26966,3.5056 -2.56179,5.9326 -2.29214,2.4269 -2.83147,2.9663 -5.39326,3.9101 -2.5618,0.9438 -3.28561,2.5314 -4.98875,2.1573 z"
       id="path3953"
       inkscape:connector-curvature="0"
       sodipodi:nodetypes="sssssssssssssssssss" />
    <path
       style="fill:#000000;fill-opacity:1;stroke:#000000;stroke-width:1px;stroke-linecap:butt;stroke-linejoin:miter;stroke-opacity:1"
       d="m 364.18009,1016.8227 c -1.15041,1.1635 -3.37079,16.1798 -4.7191,21.0337 -0.5413,1.9487 2.02248,4.1798 3.91011,1.2135 1.88764,-2.9663 4.98876,-7.9551 7.2809,-10.1124 2.29213,-2.1573 7.98011,-8.6147 5.79774,-2.9663 -2.29213,5.9326 0.32746,11.4132 2.02247,6.0674 1.75281,-5.528 3.37079,-6.7415 5.79775,-8.6292 2.2552,-1.754 3.00682,1.0226 2.83146,3.3708 -0.13645,1.8271 -2.1573,4.9888 -2.29213,7.4157 -0.0946,1.7029 1.46875,3.3715 2.5618,-0.4045 1.48314,-5.1235 3.22508,-8.746 1.88763,-11.5954 -0.69616,-1.4832 -2.24625,-2.9663 -3.91011,-2.5618 -3.23584,0.7866 -3.50561,2.5618 -5.52808,4.1797 -1.46267,1.1702 0.18711,-3.1083 -1.88764,-3.3708 -3.08821,-0.3907 -3.77528,0.9439 -6.60674,3.6405 -2.83146,2.6966 -7.55056,9.573 -6.87639,4.9888 0.62035,-4.2184 1.34831,-7.0113 2.1573,-8.2248 0.80898,-1.2134 7.41572,-0.8089 3.10111,-1.2134 -4.68889,-0.4396 -4.63486,-3.7349 -5.52808,-2.8315 z"
       id="path3955"
       inkscape:connector-curvature="0"
       sodipodi:nodetypes="sssssssssssssssssss" />
    <path
       style="fill:#000000;fill-opacity:1;stroke:#000000;stroke-width:1px;stroke-linecap:butt;stroke-linejoin:miter;stroke-opacity:1"
       d="m 398.49766,1023.1243 c -1.75142,7.6426 -4.67671,15.2024 -0.63688,17.992 2.80394,1.9361 7.11697,0.056 10.19012,-3.5029 3.02519,-3.5028 7.16493,-9.5532 10.50856,-12.4192 1.73087,-1.4836 5.57273,-1.9106 4.77662,3.5029 -0.7961,5.4135 -4.29895,9.8716 -2.54753,13.3745 1.75143,3.5029 5.25428,2.7068 4.77662,1.9106 -0.81918,-1.3653 -2.38831,-0.1592 -1.91065,-2.8659 0.47767,-2.7068 1.91065,-8.5979 2.38831,-11.4639 0.47767,-2.866 0.79611,-6.0504 -1.27376,-7.1649 -2.06987,-1.1146 -4.29896,-1.7515 -5.89117,-0.7961 -3.09536,1.8572 -5.57272,4.7766 -7.96102,8.4386 -1.97191,3.0236 -4.29896,6.5281 -7.32416,8.598 -1.58234,1.0826 -3.82129,0.1592 -4.29896,-2.5476 -0.81944,-4.6434 -0.44703,-5.0669 0.79611,-7.8018 1.59221,-3.5028 3.66207,-3.8213 3.18441,-6.6872 -0.47766,-2.866 -3.13095,-5.7482 -4.77662,1.4329 z"
       id="path3957"
       inkscape:connector-curvature="0"
       sodipodi:nodetypes="sssssssssssssssss" />
    <path
       style="fill:#000000;fill-opacity:1;stroke:#000000;stroke-width:1px;stroke-linecap:butt;stroke-linejoin:miter;stroke-opacity:1"
       d="m 434.48153,1022.7166 c -0.0199,3.5172 -1.91065,9.8716 -3.66208,13.056 -1.75142,3.1845 -3.02519,9.0756 -1.27376,9.0756 1.75143,0 2.54753,-1.2737 4.93584,-5.8911 2.38831,-4.6174 4.45818,-7.0058 7.16493,-9.3941 2.70675,-2.3883 4.32359,-2.4967 3.50285,1.1146 -0.7961,3.5028 -3.82129,7.3241 -2.22909,9.2348 1.44152,1.7298 1.59221,-0.1592 2.86598,-2.5476 1.27376,-2.3883 3.82129,-7.0057 6.2096,-9.394 2.41732,-2.4173 4.29896,-3.0252 3.66207,1.9107 -0.63688,4.9358 -2.22908,8.9163 -1.5922,10.1901 0.63688,1.2738 2.38831,1.433 3.34363,-2.5475 0.95533,-3.9805 2.54753,-11.3047 1.59221,-12.7377 -0.95533,-1.433 -2.54753,-2.2291 -4.93584,-0.9553 -2.38831,1.2738 -5.09506,4.6174 -5.25428,2.5475 -0.093,-1.209 -0.47767,-3.3436 -3.8213,-2.2291 -3.34363,1.1146 -3.34363,2.866 -5.73194,4.299 -2.38831,1.433 -3.02519,1.5922 -1.75143,-0.1592 1.27377,-1.7515 2.06987,-3.8213 1.11455,-5.2543 -0.95533,-1.433 -4.12359,-3.166 -4.13974,-0.3184 z"
       id="path3959"
       inkscape:connector-curvature="0"
       sodipodi:nodetypes="ssssssssssssssssssss" />
    <path
       style="fill:#000000;fill-opacity:1;stroke:#000000;stroke-width:1px;stroke-linecap:butt;stroke-linejoin:miter;stroke-opacity:1"
       d="m 462.66358,1037.4347 c -0.47766,2.2291 -0.31844,4.7766 1.75143,4.9359 2.06987,0.1592 2.86597,-4.4582 5.25428,-8.4387 2.38831,-3.9806 5.60171,-6.9648 7.6426,-8.4387 2.86596,-2.0699 3.98051,0 2.54752,5.4135 -1.43298,5.4135 -3.98051,8.9163 -1.91064,9.8716 2.06986,0.9554 2.54753,-1.4329 4.45817,-4.6173 1.91065,-3.1845 4.45818,-5.4136 7.16493,-6.8465 2.70675,-1.433 4.6174,-0.4777 4.29896,0.9553 -0.31844,1.433 -1.91065,5.2543 -2.86597,8.4387 -0.95533,3.1844 -0.95533,3.8213 -0.63688,4.6174 0.31844,0.7961 1.91064,0.3184 2.86597,-1.5922 0.95532,-1.9107 2.22908,-9.7125 3.02519,-12.5785 0.52711,-1.8976 -0.47766,-3.5028 -3.02519,-3.3436 -2.54753,0.1592 -3.98052,0 -5.57273,1.433 -1.5922,1.433 -2.54753,2.2291 -3.34363,2.7067 -0.7961,0.4777 -0.47766,-2.3883 -0.31844,-4.2989 0.0935,-1.122 0.31844,-2.866 -1.43299,-3.1844 -2.85863,-0.5198 -6.01454,1.1545 -7.96103,2.8659 -2.12903,1.872 -3.18441,2.866 -4.77662,3.9806 -1.5922,1.1145 -4.13973,2.3883 -2.86597,0.3184 1.27377,-2.0699 1.27377,-4.6174 1.27377,-5.7319 0,-1.1146 -0.0406,-3.3828 -2.38831,-3.8213 -3.81275,-0.7123 -2.477,2.7777 -1.91065,6.8465 0.41686,2.9947 -0.80305,8.016 -1.27377,10.5085 z"
       id="path3961"
       inkscape:connector-curvature="0"
       sodipodi:nodetypes="csssssssssssssssssssssssc" />
    <path
       style="fill:#000000;fill-opacity:1;stroke:#000000;stroke-width:1px;stroke-linecap:butt;stroke-linejoin:miter;stroke-opacity:1"
       d="m 519.98302,1027.3145 c 0.7961,-3.9806 0.7961,-3.6621 -0.95533,-4.9359 -1.75142,-1.2737 -3.8213,-1.7514 -7.16493,0.3185 -2.87184,1.7778 -4.13973,3.0252 -6.36882,6.2096 -2.22909,3.1844 -3.33786,5.7872 -3.50286,8.7571 -0.15922,2.866 2.86598,4.299 5.25428,3.9805 3.64365,-0.4858 5.75374,-3.9944 8.12026,-5.7319 2.82273,-2.0725 5.4135,-3.6621 7.0057,-4.1398 2.25172,-0.6755 4.77663,-2.091 4.77663,0.3185 -1e-5,4.4582 0.15921,3.1844 -0.47767,8.2795 -0.41473,3.3178 -1.11454,2.5475 0.15922,4.6174 0.9441,1.5341 2.86598,3.3436 2.38832,-0.4777 -0.47767,-3.8213 0.15921,-5.0951 0.31843,-7.8018 0.15923,-2.7068 1.14554,-6.0155 -0.63688,-7.0057 -2.86597,-1.5922 -4.77662,-1.433 -6.36882,-0.7961 -1.59221,0.6368 -4.50006,1.5766 -6.52805,3.0252 -4.45818,3.1844 -6.20961,6.2096 -8.27947,6.2096 -2.06987,0 -4.45818,-1.9107 -3.0252,-3.5029 1.43299,-1.5922 1.59221,-4.4582 4.13974,-5.7319 2.54753,-1.2738 3.50285,-3.6621 5.4135,-3.8213 1.91065,-0.1592 3.66208,-0.7961 3.18442,0.6369 -0.47767,1.4329 0.15922,3.0251 0.7961,2.8659 0.63688,-0.1592 1.42278,0.3695 1.75143,-1.2737 z"
       id="path3963"
       inkscape:connector-curvature="0"
       sodipodi:nodetypes="sssssssssssssssssssssss" />
    <path
       style="fill:#000000;fill-opacity:1;stroke:#000000;stroke-width:1px;stroke-linecap:butt;stroke-linejoin:miter;stroke-opacity:1"
       d="m 551.03104,1002.5459 c -0.95356,3.955 -10.50856,24.0423 -11.46388,28.9782 -0.95533,4.9358 -2.54754,11.6231 -1.11455,13.5337 0.76426,1.019 2.53811,1.0212 2.86597,-1.2737 0.79611,-5.5728 0.72151,-12.0959 7.00571,-26.9083 1.50277,-3.5422 5.89117,-11.9416 6.20961,-14.1707 0.3437,-2.4059 -2.71708,-3.41829 -3.50286,-0.1592 z"
       id="path3965"
       inkscape:connector-curvature="0"
       sodipodi:nodetypes="sssssss" />
    <path
       style="fill:#000000;fill-opacity:1;stroke:#000000;stroke-width:1px;stroke-linecap:butt;stroke-linejoin:miter;stroke-opacity:1"
       d="m 561.06194,1021.9513 c -1.91064,0 -2.06987,-0.4776 -2.86597,2.5476 -0.7961,3.0252 -4.6174,10.3493 -5.09506,15.4444 -0.37421,3.9915 0.15922,5.2543 2.06987,4.9358 1.91065,-0.3184 3.34363,-1.1145 2.22909,-1.7514 -1.11455,-0.6369 -2.22909,0.3184 -1.91065,-2.5475 0.31844,-2.866 3.18441,-9.8717 4.6174,-12.26 1.43298,-2.3883 2.2335,-6.3689 0.95532,-6.3689 z"
       id="path3967"
       inkscape:connector-curvature="0"
       sodipodi:nodetypes="ssssssss" />
    <path
       style="fill:#000000;fill-opacity:1;stroke:#000000;stroke-width:1px;stroke-linecap:butt;stroke-linejoin:miter;stroke-opacity:1"
       d="m 557.87753,1000.4566 c -2.77718,0.4714 -1.59221,2.8659 0.15922,4.4581 1.75143,1.5922 3.02519,4.299 3.50285,5.5728 0.47767,1.2737 2.38831,4.6174 1.75143,0.3184 -0.63688,-4.299 -2.22909,-8.2795 -3.02519,-8.9164 -0.7961,-0.6368 -1.13643,-1.6454 -2.38831,-1.4329 z"
       id="path3969"
       inkscape:connector-curvature="0"
       sodipodi:nodetypes="ssssss" />
    <path
       style="fill:#000000;fill-opacity:1;stroke:#000000;stroke-width:1px;stroke-linecap:butt;stroke-linejoin:miter;stroke-opacity:1"
       d="m 583.8305,996.31683 c -2.54753,-1.27377 -2.06987,-2.06987 -3.34364,2.06987 -1.27376,4.1397 -10.19012,26.1122 -11.46388,28.9781 -1.27377,2.866 -4.13975,12.4193 -3.50286,14.9668 0.63688,2.5475 0.47766,3.0252 1.43299,3.0252 0.95532,0 2.54753,0 1.75142,-1.1146 -0.7961,-1.1145 -1.27376,-3.1844 0.31845,-8.4387 1.5922,-5.2542 7.96103,-22.7685 10.50856,-27.5451 2.54753,-4.7766 5.47139,-11.35535 4.29896,-11.94157 z"
       id="path3971"
       inkscape:connector-curvature="0"
       sodipodi:nodetypes="sssssssss" />
    <path
       style="fill:#000000;fill-opacity:1;stroke:#000000;stroke-width:1px;stroke-linecap:butt;stroke-linejoin:miter;stroke-opacity:1"
       d="m 582.39751,1020.6776 c -1.60984,0.1592 -2.94933,0.5382 -5.25428,3.1844 -2.74509,3.1514 -3.98051,3.9805 -4.77662,7.1649 -0.95533,1.9107 -2.54753,4.4582 -0.47767,7.1649 1.36781,1.7887 2.70676,3.5029 3.98052,4.1398 1.27377,0.6369 3.98052,2.5475 5.57273,3.0252 1.5922,0.4776 1.27376,-1.1146 0.15922,-1.9107 -1.11455,-0.7961 -4.6174,-2.8659 -6.20961,-5.2542 -1.59221,-2.3884 -1.75143,-2.7068 -0.95532,-4.1398 0.7961,-1.433 3.18441,-6.0504 5.09506,-7.961 1.91065,-1.9107 1.91064,-1.2738 3.66207,-1.5922 1.75143,-0.3185 2.70676,-0.7961 1.91065,-1.7515 -1.16218,-1.3946 -1.31482,-2.2075 -2.70675,-2.0698 z"
       id="path3973"
       inkscape:connector-curvature="0"
       sodipodi:nodetypes="sscssssssssss" />
    <path
       style="fill:#000000;fill-opacity:1;stroke:#000000;stroke-width:1px;stroke-linecap:butt;stroke-linejoin:miter;stroke-opacity:1"
       d="m 602.93697,1028.4794 c -4.45817,-3.3436 -6.14224,-4.1119 -8.75713,-3.3436 -2.07348,0.6092 -4.29896,2.229 -5.4135,5.095 -1.11455,2.866 -2.01758,5.8461 -0.31845,9.5533 1.75143,3.8213 3.18442,5.7319 5.57273,6.528 2.56785,0.856 6.75403,0.3993 8.12025,-0.7961 2.54753,-2.2291 4.77662,-5.2543 6.20961,-7.6426 1.43298,-2.3883 3.34363,-6.528 2.70675,-8.5979 -0.63689,-2.0699 -1.27377,-2.866 -3.8213,-4.9358 -2.36086,-1.9182 -4.45818,0 -2.70675,1.4329 1.75143,1.433 4.45898,2.0672 2.70675,7.3242 -1.4178,4.2536 -1.91065,4.7766 -5.25428,8.5979 -2.85217,3.2596 -4.93584,3.0252 -7.64259,1.7514 -2.1417,-1.0078 -3.98052,-2.8659 -3.98052,-6.2096 0,-3.3436 -0.63688,-2.5475 1.75143,-6.0504 2.38831,-3.5028 3.82129,-3.9805 5.57272,-3.5028 1.75143,0.4777 2.81212,1.0611 4.29896,1.7514 4.45818,2.0699 0.95532,-0.9553 0.95532,-0.9553 z"
       id="path3975"
       inkscape:connector-curvature="0"
       sodipodi:nodetypes="cssssssssssssssssc" />
    <path
       style="fill:#000000;fill-opacity:1;stroke:#000000;stroke-width:1px;stroke-linecap:butt;stroke-linejoin:miter;stroke-opacity:1"
       d="m 608.35047,1010.4875 c -3.18441,-1.9107 -11.46388,-4.4582 -14.80752,-4.4582 -2.27968,0 -5.75628,0.3063 -4.29895,1.5922 2.70675,2.3883 3.74057,0.901 6.84649,1.2738 3.98051,0.4776 6.68727,1.2737 8.59791,1.7514 1.91065,0.4776 8.06928,2.4851 3.66207,-0.1592 z"
       id="path3977"
       inkscape:connector-curvature="0"
       sodipodi:nodetypes="ssssss" />
    <path
       style="fill:#000000;fill-opacity:1;stroke:#000000;stroke-width:1px;stroke-linecap:butt;stroke-linejoin:miter;stroke-opacity:1"
       d="m 619.97358,1027.6833 c -1.28238,-1.6326 -1.5922,0.3184 -2.22909,3.1844 -0.63688,2.866 -2.23332,5.9454 -3.02519,7.961 -1.75142,4.4582 0.15923,5.4135 2.38831,3.5029 2.02648,-1.737 5.10356,-4.4448 8.12025,-6.3688 4.04021,-2.5769 3.90583,-3.4291 8.75714,-4.7767 5.73194,-1.5922 3.82129,-2.229 1.91065,-2.5475 -1.91065,-0.3184 -5.09506,0.6369 -8.75714,2.866 -1.34639,0.8195 -4.13974,2.0699 -6.05038,3.6621 -1.91065,1.5922 -3.18442,2.8659 -2.06987,-0.1593 1.11454,-3.0252 3.02384,-4.6907 0.95532,-7.3241 z"
       id="path3979"
       inkscape:connector-curvature="0"
       sodipodi:nodetypes="sssssssssss" />
  </g>
</svg>
