<?xml version="1.0" encoding="UTF-8" standalone="no"?>
<!-- Created with Inkscape (http://www.inkscape.org/) -->

<svg
   xmlns:dc="http://purl.org/dc/elements/1.1/"
   xmlns:cc="http://creativecommons.org/ns#"
   xmlns:rdf="http://www.w3.org/1999/02/22-rdf-syntax-ns#"
   xmlns:svg="http://www.w3.org/2000/svg"
   xmlns="http://www.w3.org/2000/svg"
   xmlns:sodipodi="http://sodipodi.sourceforge.net/DTD/sodipodi-0.dtd"
   xmlns:inkscape="http://www.inkscape.org/namespaces/inkscape"
   width="1000"
   height="250"
   id="svg5281"
   version="1.1"
   inkscape:version="0.48.3.1 r9886"
   sodipodi:docname="Likorfabriken.svg">
  <defs
     id="defs5283" />
  <sodipodi:namedview
     id="base"
     pagecolor="#ffffff"
     bordercolor="#666666"
     borderopacity="1.0"
     inkscape:pageopacity="0.0"
     inkscape:pageshadow="2"
     inkscape:zoom="1.89"
     inkscape:cx="658.58887"
     inkscape:cy="97.832288"
     inkscape:document-units="px"
     inkscape:current-layer="layer1"
     showgrid="false"
     inkscape:window-width="1280"
     inkscape:window-height="968"
     inkscape:window-x="-4"
     inkscape:window-y="-4"
     inkscape:window-maximized="1"
     height="744.09px" />
  <metadata
     id="metadata5286">
    <rdf:RDF>
      <cc:Work
         rdf:about="">
        <dc:format>image/svg+xml</dc:format>
        <dc:type
           rdf:resource="http://purl.org/dc/dcmitype/StillImage" />
        <dc:title />
      </cc:Work>
    </rdf:RDF>
  </metadata>
  <g
     inkscape:label="Layer 1"
     inkscape:groupmode="layer"
     id="layer1"
     transform="translate(0,-802.36964)">
    <path
       style="fill:#000000;fill-opacity:1;stroke:#000000;stroke-width:1px;stroke-linecap:butt;stroke-linejoin:miter;stroke-opacity:1"
       d="m 43.70223,851.11537 c -9.13845,31.90401 -15.23075,54.69259 -19.79997,81.27927 -4.56922,26.58668 -12.946131,55.45226 -10.661521,72.16386 2.284611,16.7116 2.284611,10.6347 6.853831,14.4328 4.56922,3.798 47.97686,2.2788 63.2076,3.0384 15.23075,0.7596 32.74611,6.8366 40.36149,4.5577 7.61537,-2.2788 8.37691,-3.7981 6.85383,-7.5961 -1.52307,-3.7981 -10.66152,-4.5578 -15.23075,-5.3174 -4.56922,-0.7596 -28.93842,-4.5577 -41.88455,-4.5577 -12.94614,0 -23.60766,5.3173 -30.4615,2.2789 -6.85383,-3.0385 -14.46921,0.7596 -14.46921,-3.0385 0,-3.7981 0.76154,-28.10593 3.80769,-39.50023 3.04615,-11.39428 10.66152,-52.41373 13.70767,-65.32726 3.04615,-12.91353 9.13845,-32.66364 10.66153,-43.29831 1.52307,-10.63467 6.0923,-18.99048 0,-21.26934 -6.0923,-2.27886 -12.94614,12.15391 -12.94614,12.15391 z"
       id="path2997"
       inkscape:connector-curvature="0" />
    <path
       style="fill:#000000;fill-opacity:1;stroke:#000000;stroke-width:1px;stroke-linecap:butt;stroke-linejoin:miter;stroke-opacity:1"
       d="m 167.34006,888.85059 c 12.1846,10.63467 13.70767,16.71162 17.51536,16.71162 3.80769,0 1.52307,-3.7981 0.76154,-6.07695 -0.76154,-2.27886 4.56922,-3.7981 -0.76154,-9.11543 -5.33076,-5.31734 -0.76154,-12.15391 -13.70767,-11.3943 -12.94614,0.75962 -12.1846,0 -9.13845,4.55772 3.04615,4.55771 5.33076,5.31734 5.33076,5.31734 z"
       id="path2983"
       inkscape:connector-curvature="0" />
    <path
       style="fill:#000000;fill-opacity:1;stroke:#000000;stroke-width:1px;stroke-linecap:butt;stroke-linejoin:miter;stroke-opacity:1"
       d="m 183.33234,935.94699 c -12.18459,4.55771 -7.61537,3.03847 -11.42305,14.43277 -3.80769,11.39429 -10.66153,31.90401 -11.42307,42.53864 -0.76153,10.6347 -1.52307,20.5098 -1.52307,25.8271 0,5.3173 3.80768,6.077 8.37691,5.3173 4.56923,-0.7596 8.37691,-3.0384 9.89998,-5.3173 1.52308,-2.2789 -0.76153,-10.6347 0,-16.7116 0.76154,-6.077 3.04616,-17.47127 5.33077,-27.34633 2.28461,-9.87504 4.56922,-15.19238 5.33076,-21.26934 0.76154,-6.07695 3.80768,-5.31733 1.52307,-10.63467 -2.28461,-5.31734 -6.0923,-6.83657 -6.0923,-6.83657 z"
       id="path3753"
       inkscape:connector-curvature="0" />
    <path
       style="fill:#000000;fill-opacity:1;stroke:#000000;stroke-width:1px;stroke-linecap:butt;stroke-linejoin:miter;stroke-opacity:1"
       d="m 242.13873,866.62055 c -3.8077,18.23086 -12.94617,54.69259 -12.94617,54.69259 l -5.33076,37.22135 c 0,0 -5.33076,1.51924 -5.33076,6.83658 0,5.31734 1.5231,14.43276 1.5231,14.43276 0,0 -2.28464,17.47127 -3.04617,23.54817 -0.76153,6.077 -0.76153,9.1155 4.56923,9.8751 5.33077,0.7596 7.61536,1.5192 9.9,-2.2789 2.28459,-3.7981 3.04613,-11.3943 3.04613,-11.3943 0,0 1.52306,6.8366 6.09229,11.3943 4.56923,4.5577 12.18459,14.4328 17.51535,14.4328 5.33077,0 9.9,-1.5192 12.18464,-4.5577 2.28459,-3.0385 6.85382,-6.077 -1.52311,-9.1155 -8.37689,-3.0384 -11.42306,-3.0384 -15.23072,-9.875 -3.8077,-6.8366 -10.66152,-17.47125 -12.18463,-21.26935 -1.52306,-3.79809 -3.04612,-7.59619 -3.04612,-7.59619 0,0 6.85382,-6.07695 15.23075,-10.63467 8.37689,-4.55772 17.51536,-10.63467 22.84612,-13.67315 5.33076,-3.03848 9.89995,-1.51924 8.37689,-6.07695 -1.52306,-4.55772 -5.33076,-11.3943 -12.18459,-8.35582 -6.85383,3.03848 -12.18459,8.35582 -20.56152,11.39429 -8.37689,3.03848 -12.18459,6.83658 -12.18459,6.83658 0,0 0.76153,-9.87505 5.33076,-25.06744 4.56923,-15.19239 7.61536,-29.62516 9.13847,-38.74059 1.52306,-9.11543 8.37689,-18.23087 5.33076,-24.30782 -3.04617,-6.07696 -9.9,-7.5962 -13.7077,-4.55772 -3.80765,3.03848 -3.80765,6.83658 -3.80765,6.83658 z"
       id="path3755"
       inkscape:connector-curvature="0"
       sodipodi:nodetypes="cccscssscsssssscssssscssssc" />
    <path
       style="fill:#000000;fill-opacity:1;stroke:#000000;stroke-width:1px;stroke-linecap:butt;stroke-linejoin:miter;stroke-opacity:1"
       d="m 313.8576,923.94947 c 6.0923,6.07695 8.37694,11.39429 3.04617,9.11543 -5.33076,-2.27886 -13.70769,-8.35581 -15.23076,-12.91353 -1.52306,-4.55771 -3.80769,-6.83657 6.85383,-8.35581 10.66153,-1.51924 3.8077,-0.75962 27.41535,0 23.60765,0.75962 28.17688,1.51924 33.50764,3.7981 5.33077,2.27885 9.9,3.03847 9.9,5.31733 0,2.27886 0,6.83658 -18.27689,6.07696 -18.27692,-0.75962 -47.21534,-3.03848 -47.21534,-3.03848 z"
       id="path3757"
       inkscape:connector-curvature="0" />
    <g
       id="g5242">
      <path
         inkscape:connector-curvature="0"
         id="path3759"
         d="m 342.03448,964.20929 c -12.18459,-3.79809 -16.75382,-1.51923 -21.32305,0 -4.56923,1.51924 -15.99229,12.15392 -19.03842,19.75011 -3.04616,7.5962 -2.28463,15.952 -0.76153,18.9905 1.52307,3.0385 3.04613,9.875 9.13843,12.9135 6.09229,3.0385 15.23075,3.0385 19.79998,3.0385 4.56924,0 15.99229,-9.1154 17.51536,-12.1539 1.52306,-3.0385 9.13846,-21.2694 9.89999,-25.06746 0.76153,-3.79809 0.76153,-15.19238 -2.28463,-17.47125 -3.04613,-2.27885 -3.80766,-6.07695 -9.13843,-6.07695 -5.33076,0 -3.8077,6.07695 -3.8077,6.07695 z"
         style="fill:none;fill-opacity:1;stroke:#000000;stroke-width:1px;stroke-linecap:butt;stroke-linejoin:miter;stroke-opacity:1" />
      <path
         sodipodi:nodetypes="csssssc"
         inkscape:connector-curvature="0"
         id="path3761"
         d="m 316.90377,1004.4691 c -3.04617,-12.9135 -2.28463,-17.4712 0.76153,-22.78856 3.04613,-5.31733 9.9,-9.11543 15.99229,-9.11543 6.0923,0 12.18459,1.51924 10.66153,6.07695 -1.5231,4.55772 -4.56923,13.67314 -8.37693,18.99044 -3.8077,5.3174 -4.56923,8.3559 -9.9,9.8751 -4.91198,1.3999 -9.13842,-3.0385 -9.13842,-3.0385 z"
         style="fill:none;fill-opacity:1;stroke:#000000;stroke-width:1px;stroke-linecap:butt;stroke-linejoin:miter;stroke-opacity:1" />
    </g>
    <path
       style="fill:#000000;fill-opacity:1;stroke:#000000;stroke-width:1px;stroke-linecap:butt;stroke-linejoin:miter;stroke-opacity:1"
       d="m 374.7806,967.24777 c -2.2846,22.78863 -5.33077,29.62513 -6.0923,37.98093 -0.76153,8.3559 2.2846,9.8751 5.33076,11.3943 3.04613,1.5193 12.94613,0 14.46919,-5.3173 1.5231,-5.3173 4.56923,-17.4713 9.13846,-22.029 4.56923,-4.55768 8.37693,-10.63464 14.46923,-12.91349 6.09229,-2.27886 15.99229,-7.5962 15.99229,-10.63468 0,-3.03847 -5.33077,-11.39428 -11.42306,-12.15391 -6.09234,-0.75961 -15.99229,8.35582 -19.03846,11.3943 -3.04613,3.03847 -6.09229,8.35581 -6.09229,3.03847 0,-5.31733 -1.52307,-12.91353 -6.85383,-12.91353 -5.33076,0 -9.89999,12.15391 -9.89999,12.15391 z"
       id="path3009"
       inkscape:connector-curvature="0" />
    <path
       style="fill:#000000;fill-opacity:1;stroke:#000000;stroke-width:1px;stroke-linecap:butt;stroke-linejoin:miter;stroke-opacity:1"
       d="m 469.07683,940.13607 c 0,0 6.85386,-11.3943 15.23075,-18.99049 8.37694,-7.59619 22.08459,-12.91353 29.69995,-15.95201 7.6154,-3.03848 17.51539,-6.07695 22.84611,-2.27885 5.33077,3.79809 7.6154,10.63467 -2.28459,11.39428 -9.9,0.75963 -19.33588,4.72254 -25.89229,8.35582 -13.70765,7.5962 -17.51531,16.71163 -17.51531,16.71163 0,0 12.18455,-0.75962 20.56148,0 8.37689,0.75962 20.56152,-0.75962 19.79999,3.79809 -0.76157,4.55772 -6.85387,9.11544 -17.51539,9.87505 -10.66153,0.75963 -31.98454,0.75963 -31.98454,0.75963 0,0 -5.33076,3.03847 -10.66153,18.23086 -5.33076,15.19242 -9.89999,31.90402 -9.89999,37.98092 0,6.077 2.28459,14.4328 -1.52307,14.4328 -3.80769,0 -11.42305,1.5193 -14.46922,-5.3173 -3.04613,-6.8366 -1.52306,-24.3078 1.52306,-29.6252 3.04617,-5.31731 7.6154,-21.26932 10.66153,-27.34627 3.04617,-6.07696 4.56923,-7.5962 4.56923,-7.5962 0,0 -6.85383,2.27886 -9.89999,-2.27885 -3.04613,-4.55772 -1.52307,-8.35582 1.5231,-11.3943 3.04613,-3.03847 15.23072,-0.75961 15.23072,-0.75961 z"
       id="path3011"
       inkscape:connector-curvature="0"
       sodipodi:nodetypes="cssssscssscsssssscssc" />
    <path
       style="fill:#000000;fill-opacity:1;stroke:#000000;stroke-width:1px;stroke-linecap:butt;stroke-linejoin:miter;stroke-opacity:1"
       d="m 548.52311,973.46995 c 0,0 -3.8077,-8.35581 -15.23076,-6.83657 -11.42306,1.51924 -18.27689,6.83657 -22.84612,13.67315 -4.56923,6.83657 -10.59404,13.57037 -7.61536,25.06747 1.22618,4.7327 12.18459,8.3558 20.56153,6.8365 8.54276,-1.5493 18.27688,-5.3173 22.08454,-9.1154 3.8077,-3.7981 5.33076,-6.077 5.33076,-6.077 0,0 6.0923,3.7981 7.6154,10.6347 1.52307,6.8366 0.76153,12.1539 4.56923,15.1924 3.80766,3.0385 12.18459,1.5192 12.18459,-3.0385 0,-4.5577 -3.04616,-12.9135 -5.33076,-16.7116 -2.28464,-3.7981 -6.85383,-18.23086 -11.42306,-21.26934 -4.56923,-3.03847 -9.13846,-2.27886 -15.23076,2.27886 -6.09229,4.55768 -6.85382,9.87508 -15.23075,14.43278 -8.37689,4.5577 -13.70766,3.7981 -9.9,-3.0385 3.8077,-6.8366 9.13846,-9.875 12.18463,-12.91352 3.04613,-3.03848 4.56919,-5.31733 8.37689,-6.83657 3.8077,-1.51924 9.9,-2.27886 9.9,-2.27886 z"
       id="path3013"
       inkscape:connector-curvature="0"
       sodipodi:nodetypes="cssssscssssssssssc" />
    <g
       id="g5250">
      <path
         sodipodi:nodetypes="csssscscsssssssc"
         inkscape:connector-curvature="0"
         id="path3015"
         d="m 597.22791,1008.0438 c 0,0 6.09229,-19.7501 9.89999,-27.34629 3.80766,-7.5962 5.33077,-21.26935 9.89996,-34.9425 4.56923,-13.67315 6.09229,-23.5482 6.85387,-30.38477 0.76153,-6.83658 4.56919,-14.43277 8.37689,-11.39429 3.8077,3.03847 4.56923,3.03847 4.56923,3.03847 0,0 4.56923,8.35582 0.76153,23.54821 -3.8077,15.19238 -12.18459,38.74058 -12.18459,38.74058 0,0 9.13842,-9.11543 15.23072,-9.87505 6.09229,-0.75961 15.99229,0 19.03845,3.7981 3.04617,3.7981 6.85383,8.35581 2.2846,17.47125 -4.56919,9.11539 -18.27689,20.50969 -21.32301,23.54819 -3.04617,3.0385 -10.66153,10.6347 -19.79999,15.1924 -5.4491,2.7177 -19.03842,3.7981 -22.08459,3.0385 -3.04613,-0.7597 -9.89999,1.5192 -10.66153,-5.3174 -0.5887,-5.2848 9.13847,-9.1154 9.13847,-9.1154 z"
         style="fill:none;stroke:#000000;stroke-width:1px;stroke-linecap:butt;stroke-linejoin:miter;stroke-opacity:1" />
      <path
         sodipodi:nodetypes="ccsssc"
         inkscape:connector-curvature="0"
         id="path5235"
         d="m 626.16632,982.97636 c -7.61536,12.15394 -9.13846,13.67314 -8.37693,16.71164 0.76157,3.0385 11.4231,-3.7981 15.99229,-8.3558 4.56923,-4.5577 16.75382,-11.39431 15.23076,-15.19241 -1.52307,-3.7981 -7.92202,-4.64098 -12.18459,-2.27886 -6.85387,3.7981 -10.66153,9.11543 -10.66153,9.11543 z"
         style="fill:none;stroke:#000000;stroke-width:1px;stroke-linecap:butt;stroke-linejoin:miter;stroke-opacity:1" />
    </g>
    <path
       style="fill:#000000;fill-opacity:1;stroke:#000000;stroke-width:1px;stroke-linecap:butt;stroke-linejoin:miter;stroke-opacity:1"
       d="m 679.75392,965.50512 c 0,0 -6.85383,12.91353 -9.9,24.30778 -3.04612,11.3943 -6.85382,22.029 -4.56923,25.8271 2.28464,3.7981 12.18459,3.0385 15.99229,0 3.8077,-3.0385 6.0923,-9.8751 12.18459,-19.7501 2.82221,-4.5745 6.85387,-7.5962 14.46924,-15.19239 7.61536,-7.5962 12.18459,-4.55772 19.79999,-9.87506 2.64688,-1.84814 0.76153,-12.91353 -9.13846,-12.91353 -9.9,0 -12.18459,4.55772 -16.75383,9.11544 -4.56924,4.55771 -6.85384,7.59619 -6.85384,7.59619 0,0 0.76154,-7.59619 0.76154,-10.63467 0,-3.03848 -2.52238,-12.03533 -5.33077,-10.63468 -6.09229,3.03849 -10.66152,12.15392 -10.66152,12.15392 z"
       id="path5237"
       inkscape:connector-curvature="0"
       sodipodi:nodetypes="csssssssscssc" />
    <path
       style="fill:#000000;fill-opacity:1;stroke:#000000;stroke-width:1px;stroke-linecap:butt;stroke-linejoin:miter;stroke-opacity:1"
       d="m 751.05844,954.59117 c -5.33076,17.47125 -9.13842,31.14443 -9.89995,38.74063 -0.76153,7.5962 -3.04617,18.9904 -1.52311,21.2693 1.52311,2.2789 11.42306,5.3173 12.18463,1.5192 0.76154,-3.7981 2.2846,-5.3173 3.80766,-17.4712 1.52311,-12.1539 6.85383,-22.02896 7.6154,-31.90402 0.76153,-9.87505 5.33077,-16.71162 0.76153,-18.99048 -4.56923,-2.27886 -12.94616,6.83657 -12.94616,6.83657 z"
       id="path5239"
       inkscape:connector-curvature="0" />
    <path
       style="fill:#000000;fill-opacity:1;stroke:#000000;stroke-width:1px;stroke-linecap:butt;stroke-linejoin:miter;stroke-opacity:1"
       d="m 748.23628,906.92506 c 8.98346,6.44828 9.96687,5.8746 12.94612,4.55771 5.33076,-0.75962 3.04617,-3.03847 1.52306,-8.35581 -1.59333,-5.56249 -1.16351,-3.26013 -7.61536,-11.39429 0,0 -21.32305,-2.27886 -6.85382,15.19239 z"
       id="path5241"
       inkscape:connector-curvature="0"
       sodipodi:nodetypes="ccssc" />
    <path
       style="fill:#000000;fill-opacity:1;stroke:#000000;stroke-width:1px;stroke-linecap:butt;stroke-linejoin:miter;stroke-opacity:1"
       d="m 802.61901,918.40872 c -6.85383,32.66363 -10.66153,52.41373 -14.46919,69.88498 -3.8077,17.4712 -6.09229,23.5482 -2.28463,25.8271 3.80769,2.2788 9.13846,6.8365 11.42305,1.5192 2.28464,-5.3173 3.8077,-12.9135 3.04617,-15.952 -0.76153,-3.0385 3.8077,11.3943 8.37689,14.4328 4.56923,3.0384 14.46923,7.5961 22.08458,7.5961 7.6154,0 5.33077,-4.5577 -2.28463,-7.5961 -7.61536,-3.0385 -8.37689,-7.5962 -12.18455,-14.4328 -3.8077,-6.8366 -5.33076,-12.9135 -6.85383,-16.71164 -1.5231,-3.79809 0.76153,-6.83657 6.85383,-12.15391 6.09229,-5.31733 11.42306,-13.67314 16.75382,-15.952 5.33076,-2.27886 12.18459,-6.07696 7.61536,-10.63468 -4.56923,-4.55771 -12.18459,-4.55771 -15.99229,-2.27885 -3.80766,2.27885 -13.70765,13.67315 -13.70765,13.67315 0,0 4.56923,-18.99049 6.85382,-23.54821 2.2846,-4.55771 5.33077,-25.06744 6.0923,-34.94248 0.76153,-9.87506 -2.2846,-19.75011 -6.85383,-21.26935 -4.56923,-1.51924 -6.85383,-3.03848 -6.85383,6.07695 0,9.11544 -7.61539,36.46174 -7.61539,36.46174 z"
       id="path5243"
       inkscape:connector-curvature="0"
       sodipodi:nodetypes="cssssssssssssscssssc" />
    <g
       id="g5254">
      <path
         sodipodi:nodetypes="cssssscsssssc"
         inkscape:connector-curvature="0"
         id="path5245"
         d="m 854.40357,971.97305 c -4.56923,19.75015 -3.04616,30.38475 4.56919,37.22135 7.6154,6.8366 12.18464,9.1154 22.08459,7.5962 9.89999,-1.5192 15.99229,-8.3558 19.03846,-11.3943 3.04612,-3.0385 -1.52307,0 -12.94617,1.5192 -11.42305,1.5193 -16.75382,0.7597 -19.79994,-8.3558 -3.04617,-9.1154 -1.52307,-17.47122 -1.52307,-17.47122 0,0 6.85383,3.7981 14.46919,3.03848 7.6154,-0.75961 20.56152,-9.11543 23.60765,-15.952 3.04616,-6.83658 -1.52307,-17.47125 -5.33073,-20.50973 -3.8077,-3.03847 -15.99229,-3.7981 -22.84615,0.75962 -6.85383,4.55772 -12.94613,8.35582 -15.23072,12.91353 -2.28464,4.55772 -6.0923,10.63467 -6.0923,10.63467 z"
         style="fill:none;fill-opacity:1;stroke:#000000;stroke-width:1px;stroke-linecap:butt;stroke-linejoin:miter;stroke-opacity:1" />
      <path
         sodipodi:nodetypes="csssc"
         inkscape:connector-curvature="0"
         id="path5247"
         d="m 875.72663,965.13648 c 7.61536,-3.7981 12.18459,-7.59619 13.70765,-3.7981 1.52306,3.7981 0.76153,3.7981 -2.28464,8.35582 -2.53455,3.79225 -10.66152,9.11543 -15.23075,5.31733 -4.56924,-3.7981 3.80774,-9.87505 3.80774,-9.87505 z"
         style="fill:none;fill-opacity:1;stroke:#000000;stroke-width:1px;stroke-linecap:butt;stroke-linejoin:miter;stroke-opacity:1" />
    </g>
    <path
       style="fill:#000000;fill-opacity:1;stroke:#000000;stroke-width:1px;stroke-linecap:butt;stroke-linejoin:miter;stroke-opacity:1"
       d="m 922.94192,965.13648 c -2.28463,13.67315 -6.09229,28.10592 -6.09229,34.94252 0,6.8365 3.54458,12.2195 9.89999,10.6346 6.09226,-1.5192 8.37689,-12.9135 10.66153,-20.5097 2.28459,-7.59618 9.13842,-16.71161 13.70765,-20.5097 4.56923,-3.7981 11.42306,-15.95201 12.18459,-5.31734 0.76153,10.63467 -1.52306,24.30784 -0.76153,31.14434 0.76153,6.8366 -1.52306,21.2694 3.8077,22.7886 5.33076,1.5193 12.18454,0 13.70764,-2.2788 1.5231,-2.2789 -1.5231,-8.3558 -3.0461,-13.6732 -1.5231,-5.3173 -1.5231,-26.58665 -1.5231,-34.18284 0,-7.5962 -3.04614,-22.78859 -6.09231,-23.5482 -3.04613,-0.75963 -7.61536,-0.75963 -14.46919,5.31733 -6.85386,6.07696 -13.70769,13.67315 -13.70769,13.67315 0,0 -3.04613,-1.51924 -3.04613,-6.83657 0,-5.31734 0.4561,-9.50026 -5.33076,-9.11544 -11.42306,0.75962 -9.9,17.47125 -9.9,17.47125 z"
       id="path5249"
       inkscape:connector-curvature="0"
       sodipodi:nodetypes="csssssssssssscssc" />
    <path
       style="fill:none;stroke:none"
       d="m 618.56183,195.57552 c 0.49705,-2.48527 8.05821,-14.37829 11.11639,-17.48509 3.37517,-3.42883 8.23927,-6.58696 10.78516,-7.0025 1.08377,-0.1769 2.78242,-0.0834 3.77479,0.20771 1.78052,0.52237 4.28035,2.44428 4.28035,3.29082 0,0.80952 -3.90537,4.76469 -7.1209,7.21172 -1.75811,1.33791 -5.22037,4.12671 -7.69391,6.19732 -6.69548,5.6048 -12.44866,9.25158 -14.59533,9.25158 -0.70642,0 -0.81466,-0.33104 -0.54655,-1.67156 z"
       id="path3007"
       inkscape:connector-curvature="0"
       transform="translate(0,802.36964)" />
    <path
       style="fill:#000000;fill-opacity:1;stroke:#000000;stroke-width:1.12645495;stroke-linejoin:round;stroke-miterlimit:4;stroke-opacity:1;stroke-dasharray:none"
       d="m 318.18708,214.98466 c -8.42567,-1.30712 -12.08476,-4.20918 -15.5583,-12.33942 -1.48208,-3.46901 -1.77083,-4.84388 -1.94053,-9.23998 -0.24416,-6.32488 0.91067,-10.68522 4.16248,-15.71641 2.48517,-3.84503 9.65575,-11.1014 13.19799,-13.35589 6.29849,-4.00873 14.50974,-4.58854 23.9418,-1.69059 0.78672,0.24171 0.92593,-0.0731 0.92593,-2.09433 0,-3.19552 1.06963,-4.25047 3.92175,-3.86792 1.76664,0.23696 2.71969,0.87962 5.40368,3.64384 3.89528,4.01172 4.42417,5.55028 4.42823,12.88207 0.003,6.13752 -0.75111,8.7838 -6.41148,22.48691 -3.08106,7.45889 -3.6423,8.43503 -6.46562,11.24533 -2.93731,2.92378 -8.40302,6.77248 -11.61574,8.17929 -1.85623,0.81281 -8.28798,0.75172 -13.99019,-0.1329 l 0,0 z m 10.3205,-10.04597 c 0.79525,-0.43546 1.94857,-1.22467 2.56293,-1.75379 1.70882,-1.47172 6.9393,-9.46062 8.91058,-13.60978 2.29755,-4.83591 5.11107,-12.83535 5.16832,-14.69464 0.10301,-3.34597 -3.76878,-5.20587 -10.87843,-5.22569 -11.52499,-0.0321 -19.92364,8.19088 -19.92704,19.51029 -10e-4,4.13474 1.44011,12.75668 2.31602,13.85403 0.32731,0.41006 1.78559,1.31373 3.24062,2.00815 2.91867,1.39296 5.95851,1.36167 8.607,-0.0886 l 0,0 z"
       id="path5246"
       inkscape:connector-curvature="0"
       transform="translate(0,802.36964)" />
    <path
       style="fill:#000000;fill-opacity:1;stroke:#000000;stroke-width:1.12645495;stroke-linejoin:round;stroke-miterlimit:4;stroke-opacity:1;stroke-dasharray:none"
       d="m 594.37118,218.98596 c -1.45502,-0.22248 -3.05065,-0.58293 -3.54583,-0.80102 -1.08346,-0.47716 -2.20754,-3.60806 -1.77954,-4.95655 0.44014,-1.38677 3.32052,-4.00475 6.33496,-5.75785 l 2.59689,-1.51026 3.03048,-9.08682 c 1.66677,-4.99774 4.35039,-12.25583 5.9636,-16.12908 2.00372,-4.81083 3.7903,-10.47916 5.63831,-17.88884 1.48786,-5.96561 3.87062,-14.77513 5.29503,-19.57672 3.61058,-12.171 4.52142,-15.98386 6.10867,-25.5714 1.49279,-9.01699 2.25373,-11.72148 3.98021,-14.14609 1.42473,-2.00085 2.73167,-1.96371 5.88477,0.16723 2.86889,1.93886 3.36731,3.07652 4.12426,9.41376 0.43915,3.67656 0.1044,9.03571 -0.81438,13.03771 -1.22354,5.32948 -4.56503,16.51961 -8.24012,27.59488 -4.68007,14.10389 -4.82589,15.70152 -1.11091,12.17079 3.17844,-3.0208 8.05266,-6.3606 10.81434,-7.40996 4.40718,-1.67459 14.00576,-0.98014 18.10831,1.31014 2.42447,1.35347 5.33216,5.34311 6.17973,8.4792 1.82791,6.76345 -3.64396,14.93735 -20.78275,31.04536 -13.48607,12.67497 -20.02267,17.11621 -27.68021,18.8071 -4.22168,0.93221 -16.15738,1.41212 -20.10582,0.80842 z m 28.17273,-21.19469 c 3.06638,-1.3919 6.44531,-3.74751 11.77436,-8.20847 2.47355,-2.07061 5.92593,-4.85189 7.67196,-6.18063 4.50672,-3.42963 7.67196,-7.0045 7.67196,-8.66483 0,-3.35795 -2.69005,-5.13577 -7.77101,-5.13577 -2.84206,0 -3.77873,0.26393 -6.33739,1.78572 -5.26454,3.13113 -9.15649,7.24885 -13.53324,14.31834 -4.25278,6.86924 -5.16259,8.75076 -5.16259,10.67642 0,2.5734 2.0189,3.07377 5.68595,1.40922 l 0,0 z"
       id="path5258"
       inkscape:connector-curvature="0"
       transform="translate(0,802.36964)" />
    <path
       style="fill:#000000;fill-opacity:1;stroke:#000000;stroke-width:1.12645495;stroke-linejoin:round;stroke-miterlimit:4;stroke-opacity:1;stroke-dasharray:none"
       d="m 871.74392,213.60261 c -3.03258,-0.71447 -6.1139,-2.43728 -9.97459,-5.57696 -3.80985,-3.09832 -5.59609,-5.37472 -7.41978,-9.45582 -1.75813,-3.9344 -1.98976,-13.21602 -0.54137,-21.69312 1.03603,-6.06369 1.25312,-6.64663 4.82744,-12.96297 4.13898,-7.31417 5.89713,-9.19797 13.3839,-14.34042 6.65488,-4.57104 8.71166,-5.36112 14.71402,-5.6521 6.42797,-0.31162 10.31751,0.68749 12.43832,3.19505 3.19099,3.77289 5.42425,10.9838 4.76443,15.38377 -0.77516,5.16913 -6.84931,11.24401 -15.60006,15.60192 -4.95006,2.46516 -5.0054,2.47837 -10.31746,2.46357 -5.15899,-0.0144 -6.45799,-0.29548 -12.02088,-2.60134 -1.91544,-0.79396 -1.48456,11.74969 0.62959,18.32857 1.40672,4.37749 3.92186,7.4373 7.11615,8.65721 3.05217,1.16564 12.498,0.79804 19.80909,-0.7709 2.7509,-0.59033 5.08361,-0.99136 5.1838,-0.89117 0.46278,0.46277 -8.41622,6.9904 -11.24364,8.26606 -5.0517,2.2792 -11.3132,3.0937 -15.74896,2.04865 l 0,0 z m 9.42814,-40.43792 c 3.39269,-1.72552 5.04402,-3.22323 7.64025,-6.92947 2.29422,-3.27511 2.53004,-4.54804 1.36094,-7.34609 -1.24487,-2.9794 -2.62731,-2.93319 -9.34793,0.31247 -9.74194,4.70477 -13.39352,10.04174 -9.41405,13.75912 2.2034,2.05829 5.9605,2.1368 9.76079,0.20397 l 0,0 z"
       id="path5260"
       inkscape:connector-curvature="0"
       transform="translate(0,802.36964)" />
  </g>
</svg>
