<svg id="svg" xmlns="http://www.w3.org/2000/svg" xmlns:xlink="http://www.w3.org/1999/xlink" width="400" height="638.2022471910112" viewBox="0, 0, 400,638.2022471910112"><g id="svgg"><path id="path0" d="M126.069 11.049 C 123.756 12.513,123.296 15.752,124.329 23.293 C 125.363 30.835,124.911 34.012,122.620 35.312 C 116.990 38.506,117.169 57.177,122.838 57.991 C 130.576 59.103,131.692 92.798,124.291 101.858 C 121.436 105.352,119.101 110.164,119.101 112.552 C 119.101 119.287,108.041 129.048,93.820 134.867 C 86.713 137.774,80.899 140.978,80.899 141.987 C 80.899 142.995,79.382 143.820,77.528 143.820 C 75.541 143.820,74.143 145.895,74.123 148.876 C 74.075 156.050,68.357 171.596,65.405 172.581 C 61.306 173.947,62.592 179.290,67.916 183.019 C 70.663 184.943,71.754 186.517,70.341 186.517 C 68.929 186.517,67.107 189.551,66.292 193.258 C 63.438 206.252,55.653 202.297,56.338 188.202 C 56.653 181.713,56.059 174.443,55.018 172.045 C 53.779 169.194,54.042 167.379,55.775 166.801 C 60.849 165.110,58.639 157.442,52.644 155.938 C 42.934 153.501,42.059 156.828,41.528 198.200 C 41.032 236.836,45.631 260.674,53.580 260.674 C 54.550 260.674,54.920 266.522,54.403 273.668 C 53.525 285.812,53.940 287.173,60.740 294.453 L 68.018 302.243 65.261 316.111 C 63.745 323.738,63.188 332.131,64.023 334.762 C 64.886 337.481,63.815 344.346,61.540 350.671 C 57.951 360.652,56.104 362.741,51.391 362.153 C 41.833 360.960,42.219 381.451,51.852 386.606 C 54.934 388.255,55.610 390.532,54.695 396.175 C 53.855 401.350,54.574 404.476,57.084 406.559 C 59.058 408.198,60.674 412.366,60.674 415.821 C 60.674 424.308,71.277 444.944,75.638 444.944 C 77.558 444.944,81.135 447.495,83.588 450.614 C 86.041 453.732,89.658 456.007,91.626 455.670 C 94.282 455.214,96.050 458.468,98.484 468.298 C 101.771 481.566,107.435 489.888,113.180 489.888 C 114.867 489.888,118.819 491.910,121.962 494.382 C 137.892 506.913,147.502 489.421,132.777 474.696 C 124.891 466.810,121.548 450.356,125.571 439.232 C 127.001 435.276,127.516 430.332,126.715 428.245 C 125.450 424.949,126.704 424.541,136.225 425.146 C 145.809 425.755,147.286 426.514,147.944 431.166 C 148.432 434.616,151.003 437.360,155.248 438.962 C 158.850 440.322,161.798 442.730,161.798 444.313 C 161.798 445.896,162.566 447.191,163.504 447.191 C 166.442 447.191,170.751 455.802,172.118 464.405 C 174.451 479.084,177.119 484.036,180.971 480.839 C 184.722 477.726,190.714 483.046,196.939 495.017 C 198.728 498.457,201.095 500.712,202.199 500.030 C 203.303 499.348,204.806 503.612,205.539 509.507 C 207.374 524.261,209.751 531.461,212.788 531.461 C 216.873 531.461,218.582 534.199,220.021 543.049 C 221.766 553.787,226.966 555.885,226.966 545.852 C 226.966 541.820,228.216 535.065,229.743 530.842 C 232.906 522.095,222.386 498.663,214.796 497.549 C 208.146 496.573,204.494 491.794,204.494 484.065 C 204.494 475.249,210.175 475.568,213.600 484.576 C 215.769 490.283,222.472 491.931,222.472 486.757 C 222.472 483.704,227.069 480.899,232.074 480.899 C 233.445 480.899,232.747 482.230,230.522 483.856 C 224.746 488.080,226.908 494.949,235.250 498.876 C 245.284 503.600,247.679 510.171,245.909 528.128 C 244.905 538.317,245.237 543.736,246.930 544.782 C 248.309 545.635,249.438 549.812,249.438 554.065 C 249.438 558.318,250.338 561.798,251.438 561.798 C 252.538 561.798,255.546 566.096,258.124 571.348 C 266.679 588.784,277.430 606.043,285.528 615.342 L 293.527 624.529 310.247 623.173 L 326.966 621.817 343.091 605.037 C 359.546 587.913,361.343 584.819,366.239 565.169 C 367.779 558.989,369.510 552.314,370.087 550.335 C 370.664 548.356,369.420 545.022,367.323 542.925 C 365.226 540.828,364.096 538.526,364.812 537.809 C 365.529 537.093,363.274 532.338,359.802 527.242 C 356.330 522.147,352.811 515.197,351.983 511.798 C 351.154 508.399,349.622 505.618,348.577 505.618 C 335.811 505.618,324.777 437.726,331.220 398.823 C 332.900 388.680,332.373 386.055,326.032 372.980 C 318.908 358.290,313.638 347.759,310.315 341.573 C 306.776 334.983,291.613 337.210,289.626 344.612 C 288.088 350.345,289.190 352.295,300.076 363.094 C 311.951 374.875,317.172 385.032,313.206 388.637 C 308.422 392.987,290.789 393.083,283.743 388.798 L 276.743 384.542 273.032 390.205 C 270.991 393.320,268.760 399.326,268.075 403.552 C 266.066 415.930,260.674 413.342,260.674 400.000 C 260.674 391.803,259.472 387.562,256.231 384.321 C 251.275 379.365,244.916 380.447,245.365 386.171 C 246.308 398.206,245.245 399.722,235.955 399.594 C 231.011 399.526,226.966 398.926,226.966 398.262 C 226.966 394.583,238.835 382.351,243.553 381.167 C 252.211 378.994,253.325 368.767,246.223 356.648 C 239.563 345.284,238.142 321.216,243.502 310.563 C 247.411 302.793,245.749 288.199,240.774 286.618 C 234.019 284.470,224.719 274.052,224.719 268.632 C 224.719 265.450,221.062 259.482,215.678 253.878 C 206.492 244.317,199.254 231.073,196.631 219.023 C 195.833 215.358,193.849 208.820,192.223 204.494 C 182.969 179.877,179.833 138.273,185.775 118.947 C 187.839 112.234,189.305 104.213,189.033 101.124 C 187.400 82.570,163.899 35.391,154.861 32.522 C 152.497 31.772,150.562 30.049,150.562 28.694 C 150.562 14.495,136.558 4.407,126.069 11.049 M65.810 64.492 C 65.004 66.591,64.548 71.395,64.796 75.166 C 66.662 103.547,66.504 110.319,63.924 112.460 C 57.540 117.758,62.915 123.596,74.179 123.596 C 88.189 123.596,89.914 119.163,83.323 100.108 C 81.077 93.616,80.942 90.997,82.822 90.370 C 87.093 88.946,85.707 81.301,80.901 79.776 C 77.799 78.792,75.972 75.615,74.996 69.512 C 73.518 60.269,68.485 57.519,65.810 64.492 M91.860 94.828 C 94.521 102.020,98.876 102.557,98.876 95.693 C 98.876 91.417,97.711 89.888,94.454 89.888 C 90.843 89.888,90.368 90.794,91.860 94.828 M223.920 410.114 C 224.098 413.203,223.339 415.730,222.234 415.730 C 221.129 415.730,220.225 413.202,220.225 410.112 C 220.225 402.791,223.497 402.793,223.920 410.114 " stroke="none" fill="#000000" fill-rule="evenodd"></path></g></svg>